# xmcd CD database file
#
# Track frame offsets:
#	150
#	16540
#	31997
#	52085
#	66922
#	85710
#	96670
#	113282
#	128182
#	142970
#	157325
#	170687
#	190260
#
# Disc length: 2788 seconds
#
# Revision: 5
# Processed by: cddbd v1.5PL3 Copyright (c) Steve Scherf et al.
# Submitted via: CDex 1.40Release
#
DISCID=ad0ae20d
DTITLE=Brendan Croker and The  5 O`Clock Shadows - Brendan Croker and The  5 O`Clock Shadows
DYEAR=1989
DGENRE=Blues
TTITLE0=No Money At All
TTITLE1=You Don't Need Me Here
TTITLE2=Shine On
TTITLE3=This Man
TTITLE4=Wrong Decision
TTITLE5=That's Why I'm Leaving Here
TTITLE6=All Mixed Up
TTITLE7=This Kind Of Life
TTITLE8=My Government
TTITLE9=Ain't Gonna Smile
TTITLE10=Just An Old Waltz
TTITLE11=Mister
TTITLE12=Coconut Tree
EXTD=YEAR: 1989 ID3G: 0
EXTT0=
EXTT1=
EXTT2=
EXTT3=
EXTT4=
EXTT5=
EXTT6=
EXTT7=
EXTT8=
EXTT9=
EXTT10=
EXTT11=
EXTT12=
PLAYORDER=
